<svg width="64" height="68" viewBox="0 0 64 68" fill="none" xmlns="http://www.w3.org/2000/svg">
<path fill-rule="evenodd" clip-rule="evenodd" d="M22.0874 58.0824C29.487 60.7109 36.8201 55.656 43.4673 51.4959C48.9881 48.0407 53.5737 43.5086 55.3709 37.2521C57.3359 30.4115 57.6654 22.7304 53.3626 17.0476C48.9208 11.1811 41.3318 8.76094 33.9772 8.99668C26.8659 9.22461 20.6453 12.9236 15.94 18.2471C10.7979 24.0646 6.47181 31.0979 7.65654 38.7749C8.94462 47.1217 14.1183 55.2516 22.0874 58.0824Z" fill="white" stroke="#E8E8E8" stroke-width="4.6758"/>
<path fill-rule="evenodd" clip-rule="evenodd" d="M37.5968 17.558C42.3011 19.7486 45.691 24.2618 45.1637 29.1831C44.6291 34.1716 40.4627 37.9047 35.3391 38.6254C30.5454 39.2997 26.0591 36.3927 23.6278 32.2124C21.1859 28.0138 20.9073 22.8129 24.1586 19.402C27.5008 15.8958 32.9906 15.4131 37.5968 17.558Z" fill="#FFD02B" stroke="#F9CA25" stroke-width="4.6758"/>
</svg>
